<svg xmlns="http://www.w3.org/2000/svg" width="128" height="128" viewBox="0 0 128 128" role="img" aria-label="SW Technologies logo">
  <defs>
    <linearGradient id="g" x1="0" y1="0" x2="1" y2="1">
      <stop offset="0" stop-color="#5b8cff"/>
      <stop offset="1" stop-color="#2dd4bf"/>
    </linearGradient>
    <radialGradient id="glow" cx="30%" cy="30%" r="70%">
      <stop offset="0" stop-color="rgba(255,255,255,.5)"/>
      <stop offset="1" stop-color="rgba(255,255,255,0)"/>
    </radialGradient>
  </defs>
  <rect x="10" y="10" width="108" height="108" rx="28" fill="url(#g)"/>
  <rect x="10" y="10" width="108" height="108" rx="28" fill="url(#glow)"/>
  <path d="M40 44c10-10 38-10 48 0 4 4 4 10 0 14-4 4-10 4-14 0-6-6-14-6-20 0-6 6-16 6-20 2-4-4-4-12 6-16z" fill="rgba(7,12,22,.78)"/>
  <path d="M38 78c14 12 38 12 52 0" fill="none" stroke="rgba(7,12,22,.78)" stroke-width="10" stroke-linecap="round"/>
  <circle cx="48" cy="54" r="5" fill="rgba(7,12,22,.78)"/>
  <circle cx="80" cy="54" r="5" fill="rgba(7,12,22,.78)"/>
</svg>

